<?xml version="1.0" encoding="UTF-8" standalone="no"?>
<!-- Generator: Adobe Illustrator 19.0.0, SVG Export Plug-In . SVG Version: 6.00 Build 0)  -->
<svg id="Layer_1" xmlns="http://www.w3.org/2000/svg" xml:space="preserve" viewBox="0 0 80 80" version="1.1" y="0px" x="0px" xmlns:xlink="http://www.w3.org/1999/xlink" enable-background="new 0 0 80 80">
<circle id="XMLID_94_" cy="40" cx="40" r="40" fill="#BAC3C3"/>
<g id="XMLID_4_">
	<path id="XMLID_14_" d="m44.098 17.004c0 2.188-1.773 3.965-3.963 3.965-2.185 0-3.96-1.777-3.96-3.965 0-2.183 1.775-3.965 3.96-3.965 2.19 0 3.963 1.783 3.963 3.965z" stroke="#fff" stroke-linecap="round" stroke-miterlimit="10" stroke-width="2" fill="none"/>
	<path id="XMLID_13_" d="m61.685 42.595c0 4.07-3.303 7.375-7.374 7.375-4.072 0-7.374-3.305-7.374-7.375 0-4.074 3.303-7.372 7.374-7.372s7.374 3.298 7.374 7.372z" stroke="#fff" stroke-linecap="round" stroke-miterlimit="10" stroke-width="2" fill="none"/>
	<path id="XMLID_12_" d="m19.242 48.553c-1.839-1.34-3.033-3.511-3.033-5.958 0-4.074 3.301-7.372 7.372-7.372 2.996 0 5.574 1.782 6.732 4.346" stroke="#fff" stroke-linecap="round" stroke-miterlimit="10" stroke-width="2" fill="none"/>
		<line id="XMLID_11_" y2="60.958" x1="13.013" x2="66.887" stroke="#fff" stroke-linecap="round" stroke-miterlimit="10" y1="60.958" stroke-width="2" fill="none"/>
	<path id="XMLID_10_" d="m59.196 49.052c2.06 2.994 3.427 6.512 3.857 10.304" stroke="#fff" stroke-linecap="round" stroke-miterlimit="10" stroke-width="2" fill="none"/>
	<path id="XMLID_9_" d="m17.658 59.438c1.261-11.419 10.945-20.302 22.702-20.302 2.337 0 4.589 0.349 6.71 0.996" stroke="#fff" stroke-linecap="round" stroke-miterlimit="10" stroke-width="2" fill="none"/>
		<line id="XMLID_8_" y2="38.8" x1="40.138" x2="40.138" stroke="#fff" stroke-linecap="round" stroke-miterlimit="10" y1="20.97" stroke-width="2" fill="none"/>
	<path id="XMLID_7_" d="m32.991 60.958s8.976 0.5 11.319-7.174" stroke="#fff" stroke-linecap="round" stroke-miterlimit="10" stroke-width="2" fill="none"/>
	<rect id="XMLID_6_" height="4.536" width="4.536" y="39.964" x="21.398" fill="#fff"/>
	<rect id="XMLID_5_" height="4.536" width="4.536" y="39.964" x="52.043" fill="#fff"/>
</g>
<circle id="XMLID_3_" cy="39.961" cx="40.283" r="40" fill="none"/>
</svg>
